{"title":"Robin Thicke Ft. 2 Chainz &amp; Kendrick Lamar - Give It 2 U [Ex","uid":8864160,"size":209297052,"categoryP":"video","categoryS":"music_videos","magnet":"?xt=urn:btih:bd6fe07ef937d421b6c6fbd1e0096f390070d55e&amp;dn=Robin+Thicke+Ft.+2+Chainz+%26amp%3B+Kendrick+Lamar+-+Give+It+2+U+%5BEx&amp;tr=udp%3A%2F%2Ftracker.openbittorrent.com%3A80&amp;tr=udp%3A%2F%2Fopen.demonii.com%3A1337&amp;tr=udp%3A%2F%2Ftracker.coppersurfer.tk%3A6969&amp;tr=udp%3A%2F%2Fexodus.desync.com%3A6969","seeders":2,"leechers":0,"uploader":"Sbyky","files":-1,"time":1377855952,"description":"[IMG]http://yuq.me/users/18/139/8xMK0YEBks.png[/IMG]\n\nGeneral\nComplete name                            : Robin Thicke Ft. 2 Chainz &amp; Kendrick Lamar - Give It 2 U [Explicit] 1080p [Sbyky].mp4\nFormat                                   : MPEG-4\nFormat profile                           : Base Media / Version 2\nCodec ID                                 : mp42\nFile size                                : 200 MiB\nDuration                                 : 4mn 30s\nOverall bit rate mode                    : Variable\nOverall bit rate                         : 6 196 Kbps\nEncoded date                             : UTC 2013-08-21 17:19:20\nTagged date                              : UTC 2013-08-21 17:19:20\n\nVideo\nID                                       : 1\nFormat                                   : AVC\nFormat/Info                              : Advanced Video Codec\nFormat profile                           : &lt;a class=&quot;__cf_email__&quot; href=&quot;/cdn-cgi/l/email-protection&quot; data-cfemail=&quot;f1b9989699b1bdc5dfc1&quot;&gt;[email&amp;#160;protected]&lt;/a&gt;&lt;script cf-hash='f9e31' type=&quot;text/javascript&quot;&gt;\n/* &lt;![CDATA[ */!function(){try{var t=&quot;currentScript&quot;in document?document.currentScript:function(){for(var t=document.getElementsByTagName(&quot;script&quot;),e=t.length;e--;)if(t[e].getAttribute(&quot;cf-hash&quot;))return t[e]}();if(t&amp;&amp;t.previousSibling){var e,r,n,i,c=t.previousSibling,a=c.getAttribute(&quot;data-cfemail&quot;);if(a){for(e=&quot;&quot;,r=parseInt(a.substr(0,2),16),n=2;a.length-n;n+=2)i=parseInt(a.substr(n,2),16)^r,e+=String.fromCharCode(i);e=document.createTextNode(e),c.parentNode.replaceChild(e,c)}}}catch(u){}}();/* ]]&gt; */&lt;/script&gt;\nFormat settings, CABAC                   : Yes\nFormat settings, ReFrames                : 1 frame\nCodec ID                                 : avc1\nCodec ID/Info                            : Advanced Video Coding\nDuration                                 : 4mn 30s\nBit rate                                 : 6 002 Kbps\nMaximum bit rate                         : 12.9 Mbps\nWidth                                    : 1 920 pixels\nHeight                                   : 1 080 pixels\nDisplay aspect ratio                     : 16:9\nFrame rate mode                          : Constant\nFrame rate                               : 23.976 fps\nColor space                              : YUV\nChroma subsampling                       : 4:2:0\nBit depth                                : 8 bits\nScan type                                : Progressive\nBits/(Pixel*Frame)                       : 0.121\nStream size                              : 193 MiB (97%)\nTagged date                              : UTC 2013-08-21 17:20:05\n\nAudio\nID                                       : 2\nFormat                                   : AAC\nFormat/Info                              : Advanced Audio Codec\nFormat profile                           : LC\nCodec ID                                 : 40\nDuration                                 : 4mn 30s\nBit rate mode                            : Variable\nBit rate                                 : 192 Kbps\nMaximum bit rate                         : 202 Kbps\nChannel(s)                               : 2 channels\nChannel positions                        : Front: L R\nSampling rate                            : 44.1 KHz\nCompression mode                         : Lossy\nStream size                              : 6.19 MiB (3%)\nTitle                                    : IsoMedia File Produced by Google, 5-11-2011\nEncoded date                             : UTC 2013-08-21 17:19:58\nTagged date                              : UTC 2013-08-21 17:20:05\n\nShared By Sbyky\n[IMG]http://yuq.me/users/18/139/0aq32UMZvX.gif[/IMG]\n[IMG]http://yuq.me/users/18/139/bQg62viaEG.gif[/IMG]","torrent":{"xt":"urn:btih:bd6fe07ef937d421b6c6fbd1e0096f390070d55e","amp;dn":"Robin+Thicke+Ft.+2+Chainz+%26amp%3B+Kendrick+Lamar+-+Give+It+2+U+%5BEx","amp;tr":["udp%3A%2F%2Ftracker.openbittorrent.com%3A80","udp%3A%2F%2Fopen.demonii.com%3A1337","udp%3A%2F%2Ftracker.coppersurfer.tk%3A6969","udp%3A%2F%2Fexodus.desync.com%3A6969"],"infoHash":"bd6fe07ef937d421b6c6fbd1e0096f390070d55e","infoHashBuffer":{"type":"Buffer","data":[189,111,224,126,249,55,212,33,182,198,251,209,224,9,111,57,0,112,213,94]},"announce":[],"urlList":[]}}